# xmcd
#
# Track frame offsets: 
#        150
#        17046
#        29613
#        43838
#        65523
#        81952
#        103293
#        126163
#        141824
#        155779
#        172256
#
# Disc length: 2503 seconds
#
# Revision: 0
# Processed by: cddbd v1.5.2PL0 Copyright (c) Steve Scherf et al.
# Submitted via: ExactAudioCopy v0.99pb5
#
DISCID=a409c50b
DTITLE=Trevor Murray - Leave It Up To Me
DYEAR=2012
DGENRE=Country
TTITLE0=Get Away From It All
TTITLE1=Faster Every Time
TTITLE2=Fightin' The Urge
TTITLE3=Great Grey Owl
TTITLE4=Leave It Up To Me
TTITLE5=Louise
TTITLE6=Riding The Rails
TTITLE7=She Stayed Behind
TTITLE8=The Men They Could Have Been
TTITLE9=Put My Old Harley To Rest
TTITLE10=Wait Around For You
EXTD=
EXTT0=
EXTT1=
EXTT2=
EXTT3=
EXTT4=
EXTT5=
EXTT6=
EXTT7=
EXTT8=
EXTT9=
EXTT10=
PLAYORDER=
